<svg width="18" height="18" viewBox="0 0 18 18" fill="none" xmlns="http://www.w3.org/2000/svg">
<path fill-rule="evenodd" clip-rule="evenodd" d="M9 16.5C13.1421 16.5 16.5 13.1421 16.5 9C16.5 4.85786 13.1421 1.5 9 1.5C4.85786 1.5 1.5 4.85786 1.5 9C1.5 13.1421 4.85786 16.5 9 16.5ZM9 6.375C9.51777 6.375 9.9375 5.95527 9.9375 5.4375C9.9375 4.91973 9.51777 4.5 9 4.5C8.48223 4.5 8.0625 4.91973 8.0625 5.4375C8.0625 5.95527 8.48223 6.375 9 6.375ZM9.75 8.25C9.75 7.83579 9.41421 7.5 9 7.5C8.58579 7.5 8.25 7.83579 8.25 8.25V12.75C8.25 13.1642 8.58579 13.5 9 13.5C9.41421 13.5 9.75 13.1642 9.75 12.75V8.25Z" fill="#F1F0F3" style="fill:#F1F0F3;fill:color(display-p3 0.9451 0.9412 0.9529);fill-opacity:1;"/>
</svg>
