<svg width="22" height="17" viewBox="0 0 22 17" fill="none" xmlns="http://www.w3.org/2000/svg">
<path d="M18.6552 2.30407C18.6494 2.29276 18.6397 2.2839 18.628 2.27907C17.2664 1.65438 15.8296 1.20892 14.3535 0.953851C14.34 0.951358 14.3262 0.953157 14.3139 0.958992C14.3015 0.964826 14.2913 0.9744 14.2848 0.986352C14.0891 1.34146 13.9115 1.70621 13.7526 2.07921C12.1614 1.83767 10.5429 1.83767 8.95169 2.07921C8.79175 1.70526 8.61129 1.34042 8.41115 0.986352C8.40428 0.97466 8.39406 0.965307 8.3818 0.95951C8.36954 0.953713 8.35583 0.951741 8.34243 0.953851C6.86614 1.20839 5.42922 1.65387 4.06785 2.27911C4.0562 2.28405 4.04636 2.29248 4.03971 2.30325C1.31724 6.3689 0.571448 10.3346 0.937306 14.2512C0.938335 14.2608 0.941284 14.2701 0.945978 14.2785C0.950671 14.2869 0.957014 14.2943 0.964627 14.3003C2.5499 15.4741 4.32304 16.37 6.20839 16.9499C6.22167 16.9539 6.23585 16.9537 6.24902 16.9494C6.26219 16.9451 6.27373 16.9368 6.28207 16.9258C6.687 16.3748 7.0458 15.7913 7.35482 15.1814C7.35907 15.173 7.3615 15.1638 7.36194 15.1545C7.36238 15.1451 7.36083 15.1357 7.35739 15.127C7.35395 15.1183 7.3487 15.1104 7.34199 15.1038C7.33527 15.0972 7.32724 15.0922 7.31843 15.089C6.75263 14.8725 6.20487 14.6115 5.68028 14.3085C5.67075 14.3029 5.66275 14.295 5.65698 14.2856C5.65121 14.2762 5.64785 14.2655 5.6472 14.2544C5.64654 14.2434 5.64862 14.2324 5.65324 14.2223C5.65785 14.2123 5.66488 14.2035 5.67368 14.1969C5.78375 14.1144 5.89389 14.0286 5.999 13.942C6.00834 13.9343 6.01964 13.9293 6.03163 13.9277C6.04361 13.9261 6.05582 13.9279 6.06686 13.9328C9.50362 15.5013 13.2244 15.5013 16.6205 13.9328C16.6315 13.9276 16.6439 13.9255 16.656 13.927C16.6682 13.9285 16.6797 13.9334 16.6892 13.9411C16.7943 14.0278 16.9044 14.1144 17.0153 14.1969C17.0242 14.2035 17.0312 14.2122 17.0359 14.2222C17.0406 14.2322 17.0428 14.2432 17.0422 14.2542C17.0416 14.2653 17.0384 14.276 17.0327 14.2854C17.027 14.2949 17.019 14.3028 17.0095 14.3085C16.4861 14.6141 15.9379 14.8749 15.3706 15.0881C15.3618 15.0915 15.3538 15.0967 15.3471 15.1033C15.3404 15.11 15.3352 15.118 15.3319 15.1268C15.3285 15.1356 15.327 15.145 15.3275 15.1544C15.3281 15.1638 15.3306 15.173 15.3349 15.1814C15.6491 15.788 16.0073 16.3707 16.4068 16.9248C16.4149 16.9362 16.4264 16.9447 16.4396 16.9492C16.4528 16.9537 16.4671 16.9539 16.4805 16.9498C18.3692 16.3719 20.1455 15.4758 21.7327 14.3003C21.7405 14.2946 21.7469 14.2874 21.7516 14.2791C21.7563 14.2708 21.7592 14.2615 21.76 14.252C22.198 9.72402 21.0268 5.79083 18.6552 2.30407ZM7.86808 11.8664C6.83336 11.8664 5.98078 10.9168 5.98078 9.7507C5.98078 8.58455 6.81682 7.63494 7.86808 7.63494C8.92754 7.63494 9.77187 8.5928 9.75533 9.75063C9.75533 10.9168 8.91926 11.8664 7.86808 11.8664ZM14.846 11.8664C13.8113 11.8664 12.9587 10.9168 12.9587 9.7507C12.9587 8.58455 13.7947 7.63494 14.846 7.63494C15.9055 7.63494 16.7498 8.5928 16.7332 9.75063C16.7332 10.9168 15.9055 11.8664 14.846 11.8664Z" fill="#8B8A9E" style="fill:#8B8A9E;fill:color(display-p3 0.5451 0.5412 0.6196);fill-opacity:1;"/>
</svg>
